<svg xmlns="http://www.w3.org/2000/svg" xmlns:xlink="http://www.w3.org/1999/xlink" width="100" zoomAndPan="magnify" viewBox="0 0 75 74.999997" height="100" preserveAspectRatio="xMidYMid meet" version="1.0"><defs><clipPath id="aa5f23c4ce"><path d="M 0.578125 7.5 L 74.078125 7.5 L 74.078125 63 L 0.578125 63 Z M 0.578125 7.5 " clip-rule="nonzero"/></clipPath></defs><g clip-path="url(#aa5f23c4ce)"><path fill="#ab805c" d="M 70.71875 59.09375 L 70.71875 26.777344 C 70.71875 24.9375 69.214844 23.433594 67.375 23.433594 L 56.433594 23.433594 L 56.433594 59.09375 L 54.96875 59.09375 L 54.96875 10.816406 C 54.96875 8.980469 53.464844 7.472656 51.625 7.472656 L 23.375 7.472656 C 21.535156 7.472656 20.03125 8.980469 20.03125 10.816406 L 20.03125 59.09375 L 18.566406 59.09375 L 18.566406 23.433594 L 7.625 23.433594 C 5.785156 23.433594 4.28125 24.9375 4.28125 26.777344 L 4.28125 59.09375 L 0.585938 59.09375 L 0.585938 62.898438 L 74.414062 62.898438 L 74.414062 59.09375 Z M 60.84375 32.9375 C 60.84375 32.648438 61.082031 32.410156 61.371094 32.410156 L 65.785156 32.410156 C 66.074219 32.410156 66.3125 32.648438 66.3125 32.9375 L 66.3125 40.03125 C 66.3125 40.324219 66.074219 40.5625 65.785156 40.5625 L 61.371094 40.5625 C 61.082031 40.5625 60.84375 40.324219 60.84375 40.03125 Z M 60.84375 46.503906 C 60.84375 46.210938 61.082031 45.972656 61.371094 45.972656 L 65.785156 45.972656 C 66.074219 45.972656 66.3125 46.210938 66.3125 46.503906 L 66.3125 53.597656 C 66.3125 53.886719 66.074219 54.121094 65.785156 54.121094 L 61.371094 54.121094 C 61.082031 54.121094 60.84375 53.886719 60.84375 53.597656 Z M 8.6875 32.9375 C 8.6875 32.648438 8.921875 32.410156 9.214844 32.410156 L 13.628906 32.410156 C 13.917969 32.410156 14.15625 32.648438 14.15625 32.9375 L 14.15625 40.03125 C 14.15625 40.324219 13.917969 40.5625 13.628906 40.5625 L 9.214844 40.5625 C 8.921875 40.5625 8.6875 40.324219 8.6875 40.03125 Z M 8.6875 46.503906 C 8.6875 46.210938 8.921875 45.972656 9.214844 45.972656 L 13.628906 45.972656 C 13.917969 45.972656 14.15625 46.210938 14.15625 46.503906 L 14.15625 53.597656 C 14.15625 53.886719 13.917969 54.121094 13.628906 54.121094 L 9.214844 54.121094 C 8.921875 54.121094 8.6875 53.886719 8.6875 53.597656 Z M 30.390625 53.597656 C 30.390625 53.886719 30.152344 54.121094 29.859375 54.121094 L 25.449219 54.121094 C 25.15625 54.121094 24.917969 53.886719 24.917969 53.597656 L 24.917969 46.503906 C 24.917969 46.210938 25.15625 45.972656 25.449219 45.972656 L 29.859375 45.972656 C 30.152344 45.972656 30.390625 46.210938 30.390625 46.503906 Z M 30.390625 40.03125 C 30.390625 40.324219 30.152344 40.5625 29.859375 40.5625 L 25.449219 40.5625 C 25.15625 40.5625 24.917969 40.324219 24.917969 40.03125 L 24.917969 32.9375 C 24.917969 32.648438 25.15625 32.410156 25.449219 32.410156 L 29.859375 32.410156 C 30.152344 32.410156 30.390625 32.648438 30.390625 32.9375 Z M 41.105469 59.09375 L 33.894531 59.09375 L 33.894531 46.671875 C 33.894531 46.285156 34.207031 45.972656 34.59375 45.972656 L 40.40625 45.972656 C 40.792969 45.972656 41.105469 46.285156 41.105469 46.671875 Z M 34.761719 40.03125 L 34.761719 32.9375 C 34.761719 32.648438 35 32.410156 35.292969 32.410156 L 39.707031 32.410156 C 40 32.410156 40.234375 32.648438 40.234375 32.9375 L 40.234375 40.03125 C 40.234375 40.324219 40 40.5625 39.707031 40.5625 L 35.292969 40.5625 C 35 40.5625 34.761719 40.324219 34.761719 40.03125 Z M 41.429688 22.242188 C 40.90625 22.242188 40.484375 22.667969 40.484375 23.1875 L 40.484375 26.191406 C 40.484375 26.710938 40.054688 27.136719 39.535156 27.136719 L 35.464844 27.136719 C 34.945312 27.136719 34.515625 26.710938 34.515625 26.191406 L 34.515625 23.1875 C 34.515625 22.667969 34.09375 22.242188 33.570312 22.242188 L 30.515625 22.242188 C 29.988281 22.242188 29.566406 21.816406 29.566406 21.292969 L 29.566406 17.457031 C 29.566406 16.933594 29.988281 16.507812 30.515625 16.507812 L 33.570312 16.507812 C 34.09375 16.507812 34.515625 16.082031 34.515625 15.5625 L 34.515625 12.589844 C 34.515625 12.066406 34.945312 11.640625 35.464844 11.640625 L 39.535156 11.640625 C 40.054688 11.640625 40.484375 12.066406 40.484375 12.589844 L 40.484375 15.5625 C 40.484375 16.082031 40.90625 16.507812 41.429688 16.507812 L 44.484375 16.507812 C 45.007812 16.507812 45.433594 16.933594 45.433594 17.457031 L 45.433594 21.292969 C 45.433594 21.816406 45.007812 22.242188 44.484375 22.242188 Z M 50.082031 53.597656 C 50.082031 53.886719 49.84375 54.121094 49.550781 54.121094 L 45.140625 54.121094 C 44.847656 54.121094 44.609375 53.886719 44.609375 53.597656 L 44.609375 46.503906 C 44.609375 46.210938 44.847656 45.972656 45.140625 45.972656 L 49.550781 45.972656 C 49.84375 45.972656 50.082031 46.210938 50.082031 46.503906 Z M 50.082031 40.03125 C 50.082031 40.324219 49.84375 40.5625 49.550781 40.5625 L 45.140625 40.5625 C 44.847656 40.5625 44.609375 40.324219 44.609375 40.03125 L 44.609375 32.9375 C 44.609375 32.648438 44.847656 32.410156 45.140625 32.410156 L 49.550781 32.410156 C 49.84375 32.410156 50.082031 32.648438 50.082031 32.9375 Z M 50.082031 40.03125 " fill-opacity="1" fill-rule="nonzero"/></g></svg>