<svg xmlns="http://www.w3.org/2000/svg" xmlns:xlink="http://www.w3.org/1999/xlink" width="100" zoomAndPan="magnify" viewBox="0 0 75 74.999997" height="100" preserveAspectRatio="xMidYMid meet" version="1.0"><defs><clipPath id="b0ca62cbfc"><path d="M 47.378906 45.582031 L 74.617188 45.582031 L 74.617188 72.585938 L 47.378906 72.585938 Z M 47.378906 45.582031 " clip-rule="nonzero"/></clipPath><clipPath id="4d131aa210"><path d="M 23 2.085938 L 51 2.085938 L 51 30 L 23 30 Z M 23 2.085938 " clip-rule="nonzero"/></clipPath><clipPath id="dc66961e1c"><path d="M 0.0390625 45.582031 L 27.351562 45.582031 L 27.351562 72.585938 L 0.0390625 72.585938 Z M 0.0390625 45.582031 " clip-rule="nonzero"/></clipPath></defs><path fill="#ab805c" d="M 52.75 69.773438 C 52.675781 69.773438 52.597656 69.765625 52.519531 69.75 C 51.886719 69.621094 51.480469 69.007812 51.609375 68.375 C 52.042969 66.234375 53.210938 64.289062 54.902344 62.890625 C 56.617188 61.472656 58.789062 60.691406 61.019531 60.691406 C 63.246094 60.691406 65.417969 61.472656 67.132812 62.890625 C 68.824219 64.289062 69.996094 66.234375 70.429688 68.375 C 70.558594 69.007812 70.148438 69.621094 69.519531 69.75 C 68.886719 69.878906 68.273438 69.46875 68.144531 68.839844 C 67.460938 65.46875 64.464844 63.019531 61.019531 63.019531 C 57.574219 63.019531 54.574219 65.46875 53.890625 68.839844 C 53.78125 69.390625 53.292969 69.773438 52.75 69.773438 " fill-opacity="1" fill-rule="evenodd"/><path fill="#ab805c" d="M 61.019531 63.019531 C 57.761719 63.019531 55.113281 60.371094 55.113281 57.113281 C 55.113281 53.855469 57.761719 51.207031 61.019531 51.207031 C 64.277344 51.207031 66.925781 53.855469 66.925781 57.113281 C 66.925781 60.371094 64.277344 63.019531 61.019531 63.019531 Z M 61.019531 53.539062 C 59.046875 53.539062 57.441406 55.140625 57.441406 57.113281 C 57.441406 59.085938 59.046875 60.691406 61.019531 60.691406 C 62.992188 60.691406 64.59375 59.085938 64.59375 57.113281 C 64.59375 55.140625 62.992188 53.539062 61.019531 53.539062 " fill-opacity="1" fill-rule="evenodd"/><g clip-path="url(#b0ca62cbfc)"><path fill="#ab805c" d="M 61.019531 72.921875 C 57.386719 72.921875 53.972656 71.507812 51.402344 68.9375 C 48.835938 66.371094 47.421875 62.953125 47.421875 59.320312 C 47.421875 55.6875 48.835938 52.273438 51.402344 49.707031 C 53.972656 47.136719 57.386719 45.722656 61.019531 45.722656 C 64.652344 45.722656 68.066406 47.136719 70.636719 49.707031 C 73.203125 52.273438 74.617188 55.6875 74.617188 59.320312 C 74.617188 62.953125 73.203125 66.371094 70.636719 68.9375 C 68.066406 71.507812 64.652344 72.921875 61.019531 72.921875 Z M 61.019531 48.054688 C 54.804688 48.054688 49.75 53.109375 49.75 59.320312 C 49.75 65.535156 54.804688 70.589844 61.019531 70.589844 C 67.230469 70.589844 72.289062 65.535156 72.289062 59.320312 C 72.289062 53.109375 67.230469 48.054688 61.019531 48.054688 " fill-opacity="1" fill-rule="evenodd"/></g><path fill="#ab805c" d="M 29.0625 26.136719 C 28.984375 26.136719 28.90625 26.128906 28.828125 26.109375 C 28.195312 25.984375 27.789062 25.367188 27.917969 24.738281 C 28.351562 22.597656 29.523438 20.648438 31.214844 19.25 C 32.929688 17.832031 35.101562 17.054688 37.328125 17.054688 C 39.558594 17.054688 41.730469 17.832031 43.445312 19.25 C 45.132812 20.648438 46.304688 22.597656 46.738281 24.738281 C 46.867188 25.367188 46.460938 25.984375 45.828125 26.109375 C 45.199219 26.238281 44.582031 25.832031 44.453125 25.199219 C 43.769531 21.832031 40.773438 19.382812 37.328125 19.382812 C 33.882812 19.382812 30.886719 21.832031 30.203125 25.199219 C 30.089844 25.753906 29.601562 26.136719 29.0625 26.136719 " fill-opacity="1" fill-rule="evenodd"/><path fill="#ab805c" d="M 37.328125 19.382812 C 34.070312 19.382812 31.421875 16.734375 31.421875 13.476562 C 31.421875 10.21875 34.070312 7.570312 37.328125 7.570312 C 40.585938 7.570312 43.234375 10.21875 43.234375 13.476562 C 43.234375 16.734375 40.585938 19.382812 37.328125 19.382812 Z M 37.328125 9.898438 C 35.355469 9.898438 33.75 11.503906 33.75 13.476562 C 33.75 15.449219 35.355469 17.050781 37.328125 17.050781 C 39.300781 17.050781 40.90625 15.449219 40.90625 13.476562 C 40.90625 11.503906 39.300781 9.898438 37.328125 9.898438 " fill-opacity="1" fill-rule="evenodd"/><g clip-path="url(#4d131aa210)"><path fill="#ab805c" d="M 37.328125 29.285156 C 33.695312 29.285156 30.28125 27.867188 27.710938 25.300781 C 25.144531 22.730469 23.730469 19.316406 23.730469 15.683594 C 23.730469 12.050781 25.144531 8.636719 27.710938 6.070312 C 30.28125 3.5 33.695312 2.085938 37.328125 2.085938 C 40.960938 2.085938 44.375 3.5 46.945312 6.070312 C 49.511719 8.636719 50.925781 12.050781 50.925781 15.683594 C 50.925781 19.316406 49.511719 22.730469 46.945312 25.300781 C 44.375 27.867188 40.960938 29.285156 37.328125 29.285156 Z M 37.328125 4.417969 C 31.117188 4.417969 26.058594 9.46875 26.058594 15.683594 C 26.058594 21.898438 31.113281 26.953125 37.328125 26.953125 C 43.542969 26.953125 48.597656 21.898438 48.597656 15.683594 C 48.597656 9.46875 43.542969 4.417969 37.328125 4.417969 " fill-opacity="1" fill-rule="evenodd"/></g><path fill="#ab805c" d="M 21.90625 69.773438 C 21.363281 69.773438 20.875 69.390625 20.765625 68.839844 C 20.082031 65.46875 17.085938 63.019531 13.636719 63.019531 C 10.191406 63.019531 7.195312 65.46875 6.511719 68.839844 C 6.382812 69.46875 5.769531 69.878906 5.136719 69.75 C 4.507812 69.621094 4.097656 69.007812 4.226562 68.375 C 4.660156 66.234375 5.832031 64.289062 7.523438 62.890625 C 9.238281 61.472656 11.410156 60.691406 13.636719 60.691406 C 15.867188 60.691406 18.039062 61.472656 19.753906 62.890625 C 21.445312 64.289062 22.613281 66.234375 23.046875 68.375 C 23.175781 69.007812 22.769531 69.621094 22.136719 69.75 C 22.058594 69.765625 21.980469 69.773438 21.90625 69.773438 " fill-opacity="1" fill-rule="evenodd"/><path fill="#ab805c" d="M 13.636719 63.019531 C 10.378906 63.019531 7.730469 60.371094 7.730469 57.113281 C 7.730469 53.855469 10.378906 51.207031 13.636719 51.207031 C 16.894531 51.207031 19.546875 53.855469 19.546875 57.113281 C 19.546875 60.371094 16.894531 63.019531 13.636719 63.019531 Z M 13.636719 53.539062 C 11.664062 53.539062 10.0625 55.140625 10.0625 57.113281 C 10.0625 59.085938 11.664062 60.691406 13.636719 60.691406 C 15.609375 60.691406 17.214844 59.085938 17.214844 57.113281 C 17.214844 55.140625 15.609375 53.539062 13.636719 53.539062 " fill-opacity="1" fill-rule="evenodd"/><g clip-path="url(#dc66961e1c)"><path fill="#ab805c" d="M 13.636719 72.921875 C 10.003906 72.921875 6.589844 71.507812 4.023438 68.9375 C 1.453125 66.371094 0.0390625 62.953125 0.0390625 59.320312 C 0.0390625 55.6875 1.453125 52.273438 4.023438 49.707031 C 6.589844 47.136719 10.003906 45.722656 13.636719 45.722656 C 17.269531 45.722656 20.683594 47.136719 23.253906 49.707031 C 25.820312 52.273438 27.238281 55.6875 27.238281 59.320312 C 27.238281 62.953125 25.820312 66.371094 23.253906 68.9375 C 20.683594 71.507812 17.269531 72.921875 13.636719 72.921875 Z M 13.636719 48.054688 C 7.425781 48.054688 2.371094 53.109375 2.371094 59.320312 C 2.371094 65.535156 7.425781 70.589844 13.636719 70.589844 C 19.851562 70.589844 24.90625 65.535156 24.90625 59.320312 C 24.90625 53.109375 19.851562 48.054688 13.636719 48.054688 " fill-opacity="1" fill-rule="evenodd"/></g><path fill="#ab805c" d="M 38.769531 19.507812 C 38.128906 19.507812 37.605469 18.984375 37.605469 18.34375 L 37.605469 18.339844 C 37.605469 17.699219 38.128906 17.175781 38.769531 17.175781 C 39.414062 17.175781 39.9375 17.699219 39.9375 18.339844 C 39.9375 18.984375 39.414062 19.507812 38.769531 19.507812 " fill-opacity="1" fill-rule="evenodd"/><path fill="#ab805c" d="M 19.570312 49.558594 C 19.382812 49.558594 19.191406 49.511719 19.015625 49.417969 C 18.449219 49.109375 18.238281 48.402344 18.546875 47.835938 L 30.371094 26.058594 C 30.675781 25.492188 31.386719 25.28125 31.949219 25.589844 C 32.515625 25.894531 32.726562 26.605469 32.417969 27.167969 L 20.59375 48.949219 C 20.382812 49.339844 19.984375 49.558594 19.570312 49.558594 " fill-opacity="1" fill-rule="evenodd"/><path fill="#ab805c" d="M 35.886719 19.507812 C 35.242188 19.507812 34.71875 18.984375 34.71875 18.34375 L 34.71875 18.339844 C 34.71875 17.699219 35.242188 17.175781 35.886719 17.175781 C 36.53125 17.175781 37.050781 17.699219 37.050781 18.339844 C 37.050781 18.984375 36.53125 19.507812 35.886719 19.507812 " fill-opacity="1" fill-rule="evenodd"/><path fill="#ab805c" d="M 48.585938 60.488281 L 26.070312 60.488281 C 25.425781 60.488281 24.90625 59.964844 24.90625 59.320312 C 24.90625 58.679688 25.425781 58.15625 26.070312 58.15625 L 48.585938 58.15625 C 49.230469 58.15625 49.75 58.679688 49.75 59.320312 C 49.75 59.964844 49.230469 60.488281 48.585938 60.488281 " fill-opacity="1" fill-rule="evenodd"/><path fill="#ab805c" d="M 55.085938 49.558594 C 54.671875 49.558594 54.273438 49.339844 54.0625 48.949219 L 42.238281 27.167969 C 41.929688 26.605469 42.140625 25.894531 42.707031 25.589844 C 43.269531 25.28125 43.976562 25.492188 44.285156 26.058594 L 56.109375 47.835938 C 56.417969 48.402344 56.207031 49.109375 55.640625 49.417969 C 55.464844 49.511719 55.273438 49.558594 55.085938 49.558594 " fill-opacity="1" fill-rule="evenodd"/><path fill="#ab805c" d="M 33.890625 51.265625 C 33.59375 51.265625 33.296875 51.152344 33.066406 50.925781 C 32.613281 50.46875 32.613281 49.730469 33.066406 49.277344 C 34.207031 48.136719 35.71875 47.511719 37.328125 47.511719 C 38.9375 47.511719 40.449219 48.136719 41.589844 49.277344 C 42.042969 49.730469 42.042969 50.46875 41.589844 50.925781 C 41.132812 51.378906 40.394531 51.378906 39.941406 50.925781 C 39.242188 50.226562 38.316406 49.839844 37.328125 49.839844 C 36.339844 49.839844 35.414062 50.226562 34.714844 50.925781 C 34.488281 51.152344 34.191406 51.265625 33.890625 51.265625 " fill-opacity="1" fill-rule="evenodd"/><path fill="#ab805c" d="M 42.90625 47.816406 C 42.609375 47.816406 42.3125 47.703125 42.082031 47.476562 C 39.460938 44.851562 35.195312 44.851562 32.574219 47.476562 C 32.117188 47.929688 31.378906 47.929688 30.925781 47.476562 C 30.46875 47.019531 30.46875 46.28125 30.925781 45.828125 C 34.457031 42.296875 40.199219 42.296875 43.730469 45.828125 C 44.1875 46.28125 44.1875 47.019531 43.730469 47.476562 C 43.503906 47.703125 43.207031 47.816406 42.90625 47.816406 " fill-opacity="1" fill-rule="evenodd"/><path fill="#ab805c" d="M 45.050781 44.367188 C 44.753906 44.367188 44.453125 44.253906 44.226562 44.027344 C 42.382812 42.183594 39.933594 41.167969 37.328125 41.167969 C 34.722656 41.167969 32.273438 42.183594 30.429688 44.027344 C 29.976562 44.480469 29.238281 44.480469 28.78125 44.027344 C 28.328125 43.570312 28.328125 42.835938 28.78125 42.378906 C 31.066406 40.097656 34.101562 38.839844 37.328125 38.839844 C 40.554688 38.839844 43.589844 40.097656 45.875 42.378906 C 46.328125 42.835938 46.328125 43.570312 45.875 44.027344 C 45.648438 44.253906 45.347656 44.367188 45.050781 44.367188 " fill-opacity="1" fill-rule="evenodd"/></svg>