<svg xmlns="http://www.w3.org/2000/svg" xmlns:xlink="http://www.w3.org/1999/xlink" width="100" zoomAndPan="magnify" viewBox="0 0 75 74.999997" height="100" preserveAspectRatio="xMidYMid meet" version="1.0"><defs><clipPath id="bc34f88163"><path d="M 19 18 L 59 18 L 59 73.84375 L 19 73.84375 Z M 19 18 " clip-rule="nonzero"/></clipPath></defs><g clip-path="url(#bc34f88163)"><path fill="#ab805c" d="M 57.105469 71.425781 L 54.980469 68.371094 L 50.972656 62.605469 C 55.371094 60.902344 58.488281 56.636719 58.488281 51.640625 L 58.488281 25.527344 C 58.488281 21.539062 55.257812 18.308594 51.269531 18.308594 L 26.460938 18.308594 C 22.476562 18.308594 19.246094 21.539062 19.246094 25.527344 L 19.246094 51.640625 C 19.246094 56.636719 22.363281 60.902344 26.757812 62.605469 L 22.792969 68.3125 L 20.652344 71.390625 L 19.414062 73.171875 C 19.320312 73.308594 19.429688 73.492188 19.59375 73.472656 L 23.800781 73.015625 L 24.722656 72.914062 C 24.777344 72.90625 24.828125 72.878906 24.859375 72.832031 L 26.691406 70.195312 L 26.800781 70.039062 L 50.933594 70.039062 L 51.09375 70.269531 L 52.875 72.832031 C 52.90625 72.878906 52.957031 72.90625 53.011719 72.914062 L 54.085938 73.03125 L 58.136719 73.472656 C 58.300781 73.492188 58.410156 73.308594 58.316406 73.171875 Z M 40.226562 29.808594 L 53.6875 29.808594 C 54.589844 29.808594 55.324219 30.542969 55.324219 31.445312 L 55.324219 42.875 C 55.324219 43.78125 54.589844 44.511719 53.6875 44.511719 L 40.226562 44.511719 Z M 22.410156 42.875 L 22.410156 31.445312 C 22.410156 30.542969 23.140625 29.808594 24.046875 29.808594 L 37.503906 29.808594 L 37.503906 44.511719 L 24.046875 44.511719 C 23.140625 44.511719 22.410156 43.78125 22.410156 42.875 Z M 25.855469 52.355469 C 25.855469 50.933594 27.007812 49.78125 28.429688 49.78125 C 29.847656 49.78125 31.003906 50.933594 31.003906 52.355469 C 31.003906 53.777344 29.847656 54.929688 28.429688 54.929688 C 27.007812 54.929688 25.855469 53.777344 25.855469 52.355469 Z M 29.101562 66.726562 L 31.414062 63.398438 L 46.316406 63.398438 L 48.628906 66.726562 Z M 49.304688 54.929688 C 47.882812 54.929688 46.730469 53.777344 46.730469 52.355469 C 46.730469 50.933594 47.882812 49.78125 49.304688 49.78125 C 50.726562 49.78125 51.878906 50.933594 51.878906 52.355469 C 51.878906 53.777344 50.726562 54.929688 49.304688 54.929688 Z M 49.304688 54.929688 " fill-opacity="1" fill-rule="nonzero"/></g><path fill="#ab805c" d="M 51.226562 6.332031 C 37.09375 1.113281 20.558594 5.625 11.023438 17.277344 C 1.4375 28.992188 0.0507812 45.871094 7.898438 58.886719 C 10.378906 63 13.617188 66.480469 17.359375 69.230469 C 17.460938 69.300781 17.601562 69.28125 17.671875 69.179688 L 19.597656 66.503906 C 19.667969 66.40625 19.644531 66.269531 19.546875 66.199219 C 17.480469 64.675781 15.570312 62.902344 13.882812 60.878906 C 5.1875 50.457031 4.152344 35.144531 11.136719 23.5625 C 18.101562 12.011719 31.980469 5.832031 45.226562 8.527344 C 58.417969 11.207031 68.710938 21.980469 70.863281 35.253906 C 71.132812 36.914062 71.230469 38.597656 71.238281 40.277344 C 71.1875 50.523438 66.214844 60.195312 58.210938 66.230469 C 58.113281 66.300781 58.09375 66.4375 58.164062 66.535156 L 60.066406 69.183594 C 60.140625 69.285156 60.285156 69.308594 60.382812 69.234375 C 67.808594 63.667969 73.109375 55.320312 74.53125 45.960938 C 74.820312 44.078125 74.980469 42.183594 74.988281 40.277344 C 74.914062 25.199219 65.378906 11.558594 51.226562 6.332031 Z M 51.226562 6.332031 " fill-opacity="1" fill-rule="nonzero"/><path fill="#ab805c" d="M 54.980469 68.371094 L 57.105469 71.425781 Z M 54.980469 68.371094 " fill-opacity="1" fill-rule="nonzero"/></svg>